<svg width="251" height="65" viewBox="0 0 251 65" fill="none" xmlns="http://www.w3.org/2000/svg">
<path d="M48.95 50.15L49.4 49L50.2 48.9C51.8667 48.6667 53.3167 48.3167 54.55 47.85C55.7833 47.3833 56.6333 46.4333 57.1 45L66.7 15.65L60.3 15.75C58.9 15.7833 57.7333 15.95 56.8 16.25C55.8667 16.5167 55.05 16.9667 54.35 17.6C53.65 18.2 52.9667 19.0167 52.3 20.05C51.6333 21.0833 50.8833 22.3667 50.05 23.9L48.75 23.85L52.35 14.35L68.7 14.5L84 14.35L83.9 18.4L84.1 24.5H82.85C82.7833 22.9 82.5167 21.45 82.05 20.15C81.6167 18.8167 80.9667 17.7667 80.1 17C79.2667 16.2 78.1833 15.7833 76.85 15.75L70.75 15.6L61.3 44.4C61.2 44.7 61.1333 44.9667 61.1 45.2C61.0667 45.4333 61.05 45.6667 61.05 45.9C61.05 46.8667 61.4333 47.5833 62.2 48.05C63 48.4833 64.0667 48.75 65.4 48.85L67.2 49L66.8 50.15L57.7 50H57.15L48.95 50.15ZM77.9105 50.15L78.3105 48.9L79.3605 48.8C81.1605 48.6333 82.4105 48.3833 83.1105 48.05C83.8439 47.6833 84.3772 46.9833 84.7105 45.95L93.4605 19.15C93.5605 18.7833 93.6439 18.4667 93.7105 18.2C93.7772 17.9333 93.8105 17.7 93.8105 17.5C93.8105 16.9333 93.5439 16.5333 93.0105 16.3C92.4772 16.0333 91.5272 15.8333 90.1605 15.7L89.2105 15.6L89.6105 14.35L96.9605 14.5H113.811V17.5L113.961 23.65H112.661C112.627 22.15 112.394 20.8167 111.961 19.65C111.561 18.45 110.894 17.5 109.961 16.8C109.027 16.1 107.761 15.75 106.161 15.75H98.6105L93.7105 30.6H100.761C101.494 30.6 102.144 30.4833 102.711 30.25C103.277 29.9833 103.827 29.4333 104.361 28.6C104.927 27.7333 105.544 26.4 106.211 24.6H107.511L105.161 31.45L103.011 38.7H101.711C102.011 37.7667 102.227 36.95 102.361 36.25C102.494 35.55 102.561 34.9333 102.561 34.4C102.561 33.5 102.361 32.8667 101.961 32.5C101.561 32.1 101.027 31.9 100.361 31.9H93.3105L90.0605 41.75C89.8272 42.4833 89.6272 43.1833 89.4605 43.85C89.3272 44.5167 89.2605 45.0833 89.2605 45.55C89.2605 46.7167 89.6439 47.5667 90.4105 48.1C91.1772 48.6 92.3105 48.8333 93.8105 48.8L100.711 48.75C102.644 48.7167 104.227 48.35 105.461 47.65C106.727 46.95 107.794 45.9167 108.661 44.55C109.561 43.1833 110.411 41.5 111.211 39.5H112.511L110.261 46.3L109.161 50H85.3605L77.9105 50.15ZM112.826 50.15L113.226 48.9L114.276 48.8C115.41 48.6667 116.31 48.5 116.976 48.3C117.643 48.1 118.193 47.6833 118.626 47.05C119.093 46.4167 119.56 45.4 120.026 44L128.426 18.4C128.526 18.0333 128.576 17.7333 128.576 17.5C128.576 16.9667 128.31 16.5667 127.776 16.3C127.243 16.0333 126.293 15.8333 124.926 15.7L123.976 15.6L124.376 14.35L131.726 14.5H132.276L136.126 14.45C140.293 14.3833 143.36 15.0833 145.326 16.55C147.293 18.0167 148.276 20 148.276 22.5C148.276 24.8 147.693 26.65 146.526 28.05C145.393 29.4167 143.843 30.4167 141.876 31.05C139.943 31.6833 137.776 32 135.376 32H134.026C136.426 32.2667 138.293 33.0667 139.626 34.4C140.993 35.7 141.776 37.4833 141.976 39.75L142.226 43.65C142.293 45.45 142.51 46.7833 142.876 47.65C143.276 48.4833 144.026 48.9 145.126 48.9C145.826 48.9 146.41 48.7333 146.876 48.4C147.343 48.0667 147.743 47.7167 148.076 47.35L149.026 48.2C148.26 49.1333 147.41 49.7833 146.476 50.15C145.543 50.5167 144.593 50.7 143.626 50.7C141.893 50.7 140.443 49.9667 139.276 48.5C138.143 47 137.526 44.9333 137.426 42.3L137.376 39.75C137.276 37.5167 136.41 35.7167 134.776 34.35C133.176 32.95 130.91 32.1667 127.976 32L123.526 45.65C123.293 46.3167 123.176 46.8667 123.176 47.3C123.176 47.8333 123.41 48.1833 123.876 48.35C124.343 48.5167 125.176 48.6667 126.376 48.8L127.326 48.9L126.926 50.15L120.076 50L112.826 50.15ZM133.276 15.85L128.376 30.85L134.226 30.9C137.293 30.9333 139.676 30.1333 141.376 28.5C143.11 26.8333 143.976 24.7 143.976 22.1C143.976 21.0667 143.743 20.0833 143.276 19.15C142.843 18.1833 142.06 17.4 140.926 16.8C139.793 16.1667 138.193 15.85 136.126 15.85H133.276ZM149.984 50.15L150.384 48.9L151.434 48.8C152.568 48.6667 153.468 48.5 154.134 48.3C154.801 48.1 155.351 47.6833 155.784 47.05C156.251 46.4167 156.718 45.4 157.184 44L165.584 18.4C165.684 18.0333 165.734 17.7333 165.734 17.5C165.734 16.9667 165.468 16.5667 164.934 16.3C164.401 16.0333 163.451 15.8333 162.084 15.7L161.134 15.6L161.534 14.35L168.884 14.5H169.434L173.284 14.45C177.451 14.3833 180.518 15.0833 182.484 16.55C184.451 18.0167 185.434 20 185.434 22.5C185.434 24.8 184.851 26.65 183.684 28.05C182.551 29.4167 181.001 30.4167 179.034 31.05C177.101 31.6833 174.934 32 172.534 32H171.184C173.584 32.2667 175.451 33.0667 176.784 34.4C178.151 35.7 178.934 37.4833 179.134 39.75L179.384 43.65C179.451 45.45 179.668 46.7833 180.034 47.65C180.434 48.4833 181.184 48.9 182.284 48.9C182.984 48.9 183.568 48.7333 184.034 48.4C184.501 48.0667 184.901 47.7167 185.234 47.35L186.184 48.2C185.418 49.1333 184.568 49.7833 183.634 50.15C182.701 50.5167 181.751 50.7 180.784 50.7C179.051 50.7 177.601 49.9667 176.434 48.5C175.301 47 174.684 44.9333 174.584 42.3L174.534 39.75C174.434 37.5167 173.568 35.7167 171.934 34.35C170.334 32.95 168.068 32.1667 165.134 32L160.684 45.65C160.451 46.3167 160.334 46.8667 160.334 47.3C160.334 47.8333 160.568 48.1833 161.034 48.35C161.501 48.5167 162.334 48.6667 163.534 48.8L164.484 48.9L164.084 50.15L157.234 50L149.984 50.15ZM170.434 15.85L165.534 30.85L171.384 30.9C174.451 30.9333 176.834 30.1333 178.534 28.5C180.268 26.8333 181.134 24.7 181.134 22.1C181.134 21.0667 180.901 20.0833 180.434 19.15C180.001 18.1833 179.218 17.4 178.084 16.8C176.951 16.1667 175.351 15.85 173.284 15.85H170.434ZM189.148 50.15L189.598 48.9L190.648 48.8C191.682 48.6667 192.515 48.5333 193.148 48.4C193.815 48.2333 194.365 47.9 194.798 47.4C195.265 46.8667 195.682 46.0333 196.048 44.9L198.448 36.25L194.498 20.35C194.265 19.3833 194.015 18.5833 193.748 17.95C193.482 17.3167 193.048 16.8167 192.448 16.45C191.848 16.0833 190.915 15.8333 189.648 15.7L188.698 15.6L189.148 14.35L195.698 14.5L202.998 14.35L202.548 15.6L201.498 15.7C199.298 15.9 198.198 16.9 198.198 18.7C198.198 19.0333 198.232 19.3833 198.298 19.75C198.365 20.1167 198.448 20.5167 198.548 20.95L201.948 34.2L213.048 20.25C213.915 19.15 214.348 18.2667 214.348 17.6C214.348 17 214.015 16.5667 213.348 16.3C212.682 16.0333 211.715 15.8333 210.448 15.7L209.498 15.6L209.948 14.35L216.348 14.5L222.648 14.35L222.198 15.6L221.148 15.75C220.248 15.8833 219.282 16.2833 218.248 16.95C217.248 17.6167 216.215 18.6167 215.148 19.95L202.648 35.65L199.848 45.55C199.748 45.8833 199.698 46.2 199.698 46.5C199.698 47.3667 200.132 47.9333 200.998 48.2C201.898 48.4333 203.082 48.6333 204.548 48.8L205.498 48.9L205.048 50.15L196.398 50L189.148 50.15Z" fill="black"/>
<path d="M17.1466 14L27.9027 3L26.6466 12.5C29.2076 11.6667 36.0978 12 38.1466 14M7.14661 28C9.47994 31.3333 20.3466 37.5 43.1466 33.5" stroke="black"/>
<path d="M38.1466 14.5C39.8133 12.1667 43.8466 7.4 46.6466 7V18.5" stroke="black"/>
<path d="M18.1354 13C13.0674 17.4235 3.86669 26.7103 7.60765 28.4701" stroke="black"/>
<path d="M12.1466 33.5C1.74663 36.7 0.47996 39.8333 1.14663 41C2.31329 41.3333 10.4466 39.8 17.6466 37M20.6466 38.5C16.6466 40 9.34664 43.3 12.1466 44.5C15.6466 46 30.1466 41 31.6466 41" stroke="black"/>
<path d="M17.6466 37C18.6466 36.5 23.1466 37.5 20.6466 38.5" stroke="black"/>
<path d="M217.472 31.78C220.792 32.7824 227.533 32.8048 227.94 24.8754C228.346 16.946 234.562 17.3787 237.619 18.5862C240.032 19.2395 243.012 18.1814 242.127 13.7978C241.242 9.41414 244.616 8.04835 245.107 12.7397L245.069 15.941C244.81 18.0465 243.196 22.4786 238.591 22.268C233.396 22.0305 233.838 22.6804 233.111 23.3747C231.9 24.5317 232.42 28.9891 230.979 32.0177C228.952 36.2769 219.896 38.1341 219.674 37.0382" stroke="black"/>
</svg>
